<svg width="24" height="24" viewBox="0 0 24 24" fill="none" xmlns="http://www.w3.org/2000/svg">
<g id="ant-design:instagram-filled">
<path id="Vector" d="M12.0001 15.1242C10.2798 15.1242 8.8759 13.7203 8.8759 12C8.8759 10.2797 10.2798 8.87577 12.0001 8.87577C13.7204 8.87577 15.1243 10.2797 15.1243 12C15.1243 13.7203 13.7204 15.1242 12.0001 15.1242ZM21.3704 12C21.3704 13.2937 21.3822 14.5758 21.3095 15.8672C21.2368 17.3672 20.8947 18.6984 19.7978 19.7953C18.6986 20.8945 17.3697 21.2344 15.8697 21.307C14.5759 21.3797 13.2939 21.368 12.0025 21.368C10.7087 21.368 9.42668 21.3797 8.13527 21.307C6.63527 21.2344 5.30402 20.8922 4.20714 19.7953C3.10792 18.6961 2.76808 17.3672 2.69542 15.8672C2.62277 14.5734 2.63449 13.2914 2.63449 12C2.63449 10.7086 2.62277 9.42421 2.69542 8.1328C2.76808 6.6328 3.11027 5.30156 4.20714 4.20468C5.30636 3.10546 6.63527 2.76562 8.13527 2.69296C9.42902 2.62031 10.7111 2.63202 12.0025 2.63202C13.2962 2.63202 14.5782 2.62031 15.8697 2.69296C17.3697 2.76562 18.7009 3.10781 19.7978 4.20468C20.897 5.3039 21.2368 6.6328 21.3095 8.1328C21.3845 9.42421 21.3704 10.7062 21.3704 12ZM12.0001 7.19296C9.33996 7.19296 7.19308 9.33984 7.19308 12C7.19308 14.6601 9.33996 16.807 12.0001 16.807C14.6603 16.807 16.8072 14.6601 16.8072 12C16.8072 9.33984 14.6603 7.19296 12.0001 7.19296ZM17.004 15.8812C16.3829 15.8812 15.8814 16.3828 15.8814 17.0039C15.8814 17.625 16.3829 18.1266 17.004 18.1266C17.6251 18.1266 18.1267 17.625 18.1267 17.0039C18.1269 16.8564 18.098 16.7103 18.0416 16.5741C17.9853 16.4378 17.9026 16.3139 17.7983 16.2096C17.694 16.1054 17.5702 16.0227 17.4339 15.9663C17.2976 15.91 17.1515 15.8811 17.004 15.8812Z" fill="black"/>
</g>
</svg>
